<?xml version="1.0" encoding="iso-8859-1"?>
<!-- Uploaded to: SVG Repo, www.svgrepo.com, Generator: SVG Repo Mixer Tools -->
<svg version="1.1" id="Layer_1" xmlns="http://www.w3.org/2000/svg" xmlns:xlink="http://www.w3.org/1999/xlink" 
	 viewBox="0 0 512 512" xml:space="preserve">
<path style="fill:#74E7E7;" d="M148.645,12.444v97.127h29.729V12.444C178.374,6.147,148.645,6.147,148.645,12.444z"/>
<path style="fill:#0278AA;" d="M256,61.15c-85.472,0-107.355,20.71-107.355,47.577v379.034c0,9.084,7.432,16.516,16.516,16.516
	h181.677c9.084,0,16.516-7.432,16.516-16.516V108.729C363.355,81.861,341.472,61.15,256,61.15z"/>
<path style="fill:#4CCAED;" d="M185.531,313.341c0,26.21,17.656,52.419,49.73,60.371h41.478c32.074-7.952,49.73-34.162,49.73-60.371
	H185.531z"/>
<path style="fill:#74E7E7;" d="M276.746,388.533c0,8.68-7.037,15.717-15.717,15.717H250.97c-8.68,0-15.717-7.037-15.717-15.717
	v-24.72c0-8.681,7.037-15.718,15.717-15.718h10.059c8.68,0,15.717,7.037,15.717,15.718V388.533z"/>
<rect x="185.531" y="131.667" style="fill:#06344C;" width="140.938" height="181.677"/>
<g>
	<path style="fill:#021729;" d="M326.499,123.941H185.501c-4.561,0-8.258,3.696-8.258,8.258V314.1
		c0,30.533,19.736,56.575,49.752,66.591v8.6c0,13.221,10.755,23.975,23.975,23.975h10.059c13.22,0,23.975-10.755,23.975-23.975
		v-8.602c30.016-10.013,49.752-36.057,49.752-66.59V132.2C334.757,127.639,331.059,123.941,326.499,123.941z M193.76,140.458
		h124.482v165.385H193.76V140.458z M268.488,389.293c0,4.113-3.346,7.459-7.459,7.459H250.97c-4.113,0-7.459-3.346-7.459-7.459
		v-24.72c0-4.113,3.346-7.459,7.459-7.459h10.059c4.113,0,7.459,3.346,7.459,7.459V389.293z M284.953,363.065
		c-0.781-12.52-11.21-22.469-23.923-22.469H250.97c-12.714,0-23.142,9.948-23.923,22.47c-19.493-8.39-29.915-24.789-32.585-40.707
		h123.076C314.868,338.278,304.446,354.675,284.953,363.065z"/>
	<path style="fill:#021729;" d="M214.405,428.501h-12.357c-4.561,0-8.258,3.696-8.258,8.258c0,4.562,3.697,8.258,8.258,8.258h12.357
		c4.561,0,8.258-3.696,8.258-8.258C222.663,432.197,218.965,428.501,214.405,428.501z"/>
	<path style="fill:#021729;" d="M262.178,446.118h-12.357c-4.561,0-8.258,3.696-8.258,8.258s3.697,8.258,8.258,8.258h12.357
		c4.561,0,8.258-3.696,8.258-8.258C270.436,449.815,266.739,446.118,262.178,446.118z"/>
	<path style="fill:#021729;" d="M309.953,428.501h-12.357c-4.561,0-8.258,3.696-8.258,8.258c0,4.562,3.697,8.258,8.258,8.258h12.357
		c4.561,0,8.258-3.696,8.258-8.258S314.513,428.501,309.953,428.501z"/>
	<path style="fill:#021729;" d="M256,54.503c-34.083,0-75.907,2.746-98.577,20.808V17.025c3.612-0.671,9.627-0.671,13.24,0V47.39
		c0,4.562,3.697,8.258,8.258,8.258s8.258-3.696,8.258-8.258v-34.41C187.181,9.077,184.926,0,164.044,0s-23.137,9.077-23.137,12.981
		v97.128v378.218c0,13.053,10.62,23.673,23.673,23.673h182.84c13.053,0,23.673-10.62,23.673-23.673V110.109
		C371.093,60.267,305.407,54.503,256,54.503z M354.577,488.327c0,3.946-3.211,7.157-7.157,7.157H164.58
		c-3.946,0-7.157-3.211-7.157-7.157V110.109c0-10.69,0-39.089,98.577-39.089s98.577,28.399,98.577,39.089V488.327z"/>
</g>
</svg>